<?xml version="1.0" encoding="utf-8"?>
<!-- Generator: Adobe Illustrator 24.0.1, SVG Export Plug-In . SVG Version: 6.00 Build 0)  -->
<svg version="1.1" id="Layer_1" xmlns="http://www.w3.org/2000/svg" xmlns:xlink="http://www.w3.org/1999/xlink" x="0px" y="0px"
	 viewBox="0 0 99.21 99.21" style="enable-background:new 0 0 99.21 99.21;" xml:space="preserve">
<style type="text/css">
	.st0{fill-rule:evenodd;clip-rule:evenodd;}
	.st1{fill-rule:evenodd;clip-rule:evenodd;fill:none}
</style>
<path class="st0" d="M94.88,14.52"/>
<g>
	<path class="st0" d="M61.21,25.21c-0.11,0.31-0.28,0.62-0.32,0.94c-0.59,4.53-0.96,4.72-5.05,5.32
		c-6.53,0.97-13.09,0.68-19.65,0.86c-3.92,0.11-5.77-0.96-6.67-5.2c-0.17-0.8-0.42-1.59-0.7-2.6c-3.13-0.7-6.06,0.17-9,0.63
		c-1.27,0.2-2.12,1.19-2.47,2.32c-0.55,1.74-1.1,3.57-1.13,5.37c-0.07,4.71,0.07,9.43,0.25,14.14c0.19,5.04,0.5,10.08,0.78,15.12
		c0.35,6.22,0.7,12.44,1.1,18.65c0.06,1,0.31,1.99,0.55,2.97c0.6,2.53,2.26,4.22,4.72,4.77c2.94,0.66,5.95,1.31,8.94,1.37
		c7.74,0.14,15.49-0.01,23.24-0.13c3.88-0.06,7.6-1.14,11.45-2.05c2.32-4.7,3-9.64,3.08-14.71c0.01-0.66-0.25-1.33-0.28-2
		c-0.1-2.28,0.94-3.9,2.7-4.28c1.95-0.42,3.66,0.77,4.29,3.3c0.4,1.61,0.7,3.34,0.57,4.97c-0.34,4.37-1.12,8.67-2.47,12.87
		c-1.42,4.42-4.17,6.9-8.93,7.73C60.2,96.62,54.22,97.11,48.14,97c-5.22-0.09-10.44,0.01-15.66,0.13
		c-3.76,0.08-7.37-0.71-10.93-1.72c-5.11-1.45-8.39-4.8-9.66-10.01c-0.32-1.3-0.6-2.64-0.68-3.97c-0.45-7.9-0.82-15.8-1.23-23.7
		c-0.13-2.52-0.38-5.04-0.44-7.56C9.37,43.62,9.17,37.06,9.18,30.5c0.01-3.46,1.34-6.56,3.63-9.21c1.6-1.85,3.49-3.11,6-3.38
		c3.01-0.31,6.01-0.69,9.36-1.08c0.71-4.44,3.97-7.42,6.95-10.52c7.28-7.59,17.96-3.85,22.47,2.35c0.67,0.92,1.03,2.1,1.39,3.21
		c0.52,1.58,0.9,3.21,1.32,4.77c1.66,1.17,3.38,0.39,5,0.45c3.5,0.12,6.61,1.11,9.26,3.45c1.58,1.39,2.62,3.08,2.87,5.18
		c0.49,4.07,0.12,8.06-1.17,11.96c-0.21,0.63-0.53,1.24-0.88,1.8c-0.66,1.04-2.22,1.07-3.04,0.16c-1.08-1.2-1.42-2.65-1.45-4.19
		c-0.05-2.19,0-4.38-0.1-6.57c-0.13-3-1.33-4.26-4.22-4.63C65.11,24.06,64.06,24.25,61.21,25.21z M53.64,24.54
		c0.2-1.84,0.41-3.32,0.5-4.8c0.09-1.5,0.11-3.01,0.02-4.51c-0.04-0.63-0.27-1.36-0.67-1.83c-1.52-1.81-3.29-3.38-5.61-4.06
		c-1.77-0.52-3.63-0.7-5.42,0.03c-5.55,2.29-8.29,9.78-5.61,15.9C42.21,25.22,47.69,25.85,53.64,24.54z"/>
	<path class="st0" d="M61.87,56.57c-0.78-2.64,0.11-4.6,2.43-5.96c4.94-2.87,9.83-5.84,14.87-8.52c1.72-0.92,3.82-1.32,5.79-1.53
		c2.14-0.24,3.46,0.93,4.16,2.91c1.82,5.14,0.97,9.77-3.19,13.3c-2.8,2.37-6.07,4.17-9.18,6.16c-0.53,0.34-1.31,0.54-1.9,0.42
		c-0.57-0.11-1.27-0.6-1.51-1.11c-0.23-0.5-0.15-1.38,0.17-1.83c0.47-0.64,1.25-1.09,1.94-1.54c2.11-1.37,4.26-2.69,6.36-4.08
		c0.47-0.31,0.77-0.87,0.76-1.8c-1.86,1.01-3.73,1.99-5.56,3.05c-1.89,1.1-3.87,2.11-5.58,3.45c-3,2.34-5.71,2.19-8.39-0.39
		c0,0-0.21-0.32-0.21-0.32c-0.38-0.79-0.75-1.58-1.13-2.37L61.87,56.57z M66.06,54.14c0.51,1.75,1.34,2.08,2.4,1.45
		c4.45-2.63,8.88-5.29,13.28-8c0.58-0.36,1.53-0.76,0.88-2.01C76.75,47.66,71.75,51.29,66.06,54.14z"/>
	<path class="st0" d="M62.83,58.79c0,0,0.22,0.32,0.21,0.32c0.3,0.38,0.72,0.72,0.88,1.15c1.09,3.03,0.83,3.83-1.72,5.41
		c-1.56,0.97-3.16,1.9-4.74,2.84c-4.04,2.38-8.06,4.8-12.15,7.1c-1.45,0.81-3.03,1.45-4.63,1.87c-0.63,0.16-1.6-0.34-2.17-0.82
		c-0.67-0.56-0.76-1.51-0.24-2.29c0.73-1.12,1.49-2.22,2.33-3.25c4.26-5.22,9.5-9.44,14.45-13.96c1.82-1.66,3.69-2.25,5.86-0.65
		c0.22,0.16,0.64,0.06,0.97,0.07l-0.17-0.14C62.08,57.21,62.45,58,62.83,58.79z"/>
	<path class="st0" d="M48.53,33.32c2.35,0,4.69-0.03,7.04,0.01c2.58,0.04,3.99,1,4.13,2.73c0.13,1.55-0.86,2.65-3.13,3.35
		c-1.12,0.35-2.27,0.7-3.42,0.79c-4.84,0.4-9.7,0.7-14.55,1.02c-0.33,0.02-0.67,0.01-1-0.03c-1.93-0.23-3.26-1.46-3.38-3.13
		c-0.12-1.7,0.93-3.24,2.81-3.63c1.8-0.37,3.65-0.48,5.49-0.63c2-0.16,4.01-0.22,6.02-0.33C48.53,33.43,48.53,33.37,48.53,33.32z"/>
	<path class="st0" d="M34.38,83.2c1.48-0.63,2.29-1.24,3.15-1.3c2.5-0.17,5.02-0.12,7.52-0.17c3.18-0.06,6.36-0.17,9.53-0.18
		c1.16,0,2.34,0.12,3.47,0.36c0.38,0.08,0.91,0.67,0.92,1.04c0.01,0.59-0.19,1.53-0.59,1.71c-1.18,0.54-2.5,1.08-3.77,1.09
		c-4.01,0.03-8.02-0.12-12.03-0.33c-1.66-0.09-3.33-0.4-4.95-0.78C36.74,84.45,35.9,83.9,34.38,83.2z"/>
	<path class="st0" d="M34.68,48.3c0.43-0.23,0.83-0.59,1.28-0.68c5.12-1.01,10.3-1.21,15.49-1.09c0.62,0.01,1.26,0.38,1.84,0.69
		c0.65,0.35,0.67,1.77,0.04,2.2c-0.54,0.36-1.15,0.83-1.75,0.86C46.07,50.57,40.57,50.59,34.68,48.3z"/>
	<path class="st0" d="M28.52,77.02c1.9,0,3.66,1.88,3.76,4.02c0.09,1.88-1.56,3.61-3.44,3.6c-2.14-0.01-3.77-1.74-3.69-3.92
		C25.22,78.66,26.72,77.02,28.52,77.02z"/>
	<path class="st0" d="M28.45,73.81c-1.98-0.09-3.34-1.67-3.22-3.74c0.13-2.29,1.81-3.94,3.85-3.78c1.88,0.15,3.32,1.81,3.28,3.8
		C32.33,72.24,30.58,73.91,28.45,73.81z"/>
	<path class="st0" d="M31.84,58.74c-0.24,2.11-2.11,3.45-4.27,3.07c-1.62-0.28-3.01-1.94-2.92-3.48c0.11-1.88,2.18-3.59,4.15-3.42
		C30.65,55.06,32.06,56.84,31.84,58.74z"/>
	<path class="st0" d="M31.28,47.27c0.11,1.64-1.28,3.16-3.02,3.3c-1.94,0.16-3.65-1.36-3.61-3.22c0.03-1.5,1.26-2.86,2.75-3.03
		C29.4,44.09,31.17,45.43,31.28,47.27z"/>
	<path class="st0" d="M35.47,58.1c3.44-1.06,6.73-1.36,10.07-0.89c0.54,0.08,1.3,0.66,1.43,1.15c0.26,0.97-0.61,1.46-1.4,1.74
		c-0.62,0.22-1.3,0.33-1.96,0.34c-1,0.01-2.01-0.06-3-0.21c-1.48-0.23-2.97-0.5-4.42-0.88C35.91,59.29,35.77,58.65,35.47,58.1z"/>
	<path class="st1" d="M53.64,24.54c-5.95,1.31-11.43,0.68-16.78,0.73c-2.68-6.11,0.06-13.61,5.61-15.9
		c1.78-0.74,3.64-0.56,5.42-0.03c2.31,0.68,4.08,2.26,5.61,4.06c0.4,0.47,0.63,1.2,0.67,1.83c0.08,1.5,0.06,3.01-0.02,4.51
		C54.05,21.22,53.84,22.7,53.64,24.54z M45.33,20.61c2.49-0.1,4.46-2.42,4.38-5.16c-0.07-2.26-2.3-4.29-4.7-4.27
		c-2.78,0.03-5.31,2.95-4.99,5.77C40.24,18.94,42.82,20.71,45.33,20.61z"/>
	<path class="st1" d="M62.83,58.79c-0.38-0.79-0.75-1.58-1.13-2.37C62.08,57.21,62.45,58,62.83,58.79z"/>
	<path class="st1" d="M53.81,64.64c1.19-1.7,2.3-3.52,4.56-4.19C58.39,62.55,58.39,62.55,53.81,64.64z"/>
	<path class="st0" d="M45.33,20.61c-2.51,0.1-5.09-1.67-5.31-3.66c-0.32-2.82,2.21-5.74,4.99-5.77c2.39-0.02,4.63,2.01,4.7,4.27
		C49.79,18.19,47.82,20.51,45.33,20.61z M44.47,16.81c0.27-0.13,0.68-0.19,0.78-0.39c0.09-0.21-0.14-0.56-0.22-0.84
		c-0.35,0.19-0.7,0.39-1.04,0.59C44.15,16.37,44.31,16.59,44.47,16.81z"/>
	<path class="st1" d="M44.47,16.81c-0.16-0.22-0.33-0.43-0.49-0.65c0.35-0.19,0.7-0.39,1.04-0.59c0.09,0.29,0.32,0.64,0.22,0.84
		C45.16,16.62,44.75,16.68,44.47,16.81z"/>
</g>
</svg>
