<?xml version="1.0" encoding="utf-8"?>
<!-- Generator: Adobe Illustrator 24.0.1, SVG Export Plug-In . SVG Version: 6.00 Build 0)  -->
<svg version="1.1" id="Layer_1" xmlns="http://www.w3.org/2000/svg" xmlns:xlink="http://www.w3.org/1999/xlink" x="0px" y="0px"
	 viewBox="0 0 99.21 99.21" style="enable-background:new 0 0 99.21 99.21;" xml:space="preserve">
<style type="text/css">
	.st0{fill-rule:evenodd;clip-rule:evenodd;}
</style>
<g>
	<path class="st0" d="M74.84,29.99c0,2.43,0.05,4.33-0.01,6.24c-0.42,14.07-0.56,28.15-0.22,42.23c0.06,2.56-0.03,5.12-0.12,7.68
		c-0.03,0.95-0.14,1.92-0.41,2.83c-0.45,1.51-1.69,2.46-3.24,2.35c-7.67-0.53-15.32,0.51-22.99,0.17
		c-7.67-0.34-15.35-0.17-23.03-0.33c-2.23-0.05-4.44-0.6-6.67-0.66c-3.38-0.08-4.71-2.34-5.6-5.02c-0.34-1.03-0.3-2.21-0.33-3.32
		c-0.29-9.11-0.48-18.23-0.87-27.34c-0.28-6.55-0.93-13.08-1.22-19.63c-0.15-3.35,0.02-6.71,0.2-10.06
		c0.19-3.58,1.32-6.92,3.16-9.97c2.35-3.88,5.56-6.14,10.37-6.72c9.91-1.17,19.78-0.71,29.69-0.38c8.31,0.28,16.63,0.03,24.94,0.13
		C80.54,8.2,82.64,8.5,84.63,9c2.57,0.66,4.09,2.55,4.31,5.18c0.27,3.34,0.43,6.72-0.46,10.02c-1.15,4.29-3.96,6.46-8.38,6.35
		C78.51,30.52,76.94,30.22,74.84,29.99z M67.49,15.52c-1.78-0.05-3.19-0.08-4.6-0.12c-4.63-0.14-9.29,0.02-13.88-0.48
		c-7.67-0.83-15.32-0.32-22.98-0.44c-3.14-0.05-5.1,1.5-6.54,4c-1.38,2.39-2.19,4.98-2.33,7.73c-0.14,2.87-0.26,5.75-0.12,8.62
		c0.27,5.42,0.85,10.82,1.08,16.25c0.41,9.42,0.63,18.84,0.98,28.26c0.05,1.39-0.31,2.9,1,4.42c1.31,0.08,2.89,0.23,4.47,0.27
		c4.63,0.13,9.26,0.3,13.89,0.32c7.35,0.04,14.7,0.01,22.04-0.08c2.19-0.03,4.41-0.17,6.31-0.9c0.25-0.61,0.47-0.9,0.47-1.19
		c-0.46-21.4,0.55-42.79,0.42-64.18C67.68,17.37,67.59,16.75,67.49,15.52z M74.84,22.37c2.37,0.62,4.29,1.32,6.44,0.58
		c0.98-2.47,1.3-4.86,0.39-7.39c-2.36-0.29-4.52-0.52-6.83,0.18C74.84,17.94,74.84,19.96,74.84,22.37z"/>
	<path class="st0" d="M41.87,44.82c-4.3-0.23-8.61-0.4-12.9-0.73c-1.4-0.1-2.82-0.45-4.13-0.96c-1.22-0.48-1.46-2.46-0.39-3.21
		c1-0.7,2.21-1.34,3.4-1.51c2.52-0.37,5.08-0.58,7.62-0.55c6.06,0.05,12.12,0.24,18.18,0.45c1.41,0.05,2.86,0.29,4.21,0.7
		c1.12,0.34,1.81,1.32,1.82,2.56c0.01,1.21-0.52,2.26-1.69,2.64c-1.34,0.43-2.77,0.8-4.17,0.84c-3.99,0.11-7.97,0.04-11.96,0.04
		C41.87,44.99,41.87,44.91,41.87,44.82z"/>
	<path class="st0" d="M42.84,47.93c3.99,0.22,7.97,0.4,11.95,0.7c1.25,0.09,2.57,0.31,3.69,0.84c2.11,1,2.12,3.87,0.1,5.05
		c-0.54,0.32-1.16,0.57-1.77,0.68c-0.94,0.17-1.91,0.31-2.85,0.25c-8.29-0.48-16.57-0.98-24.86-1.53c-0.93-0.06-1.93-0.29-2.72-0.75
		c-0.6-0.35-1.25-1.18-1.27-1.82c-0.02-0.64,0.6-1.67,1.16-1.87c1.79-0.61,3.67-1.18,5.55-1.28c3.66-0.19,7.34-0.06,11.01-0.06
		C42.84,48.08,42.84,48,42.84,47.93z"/>
	<path class="st0" d="M46.98,77.69c-1.29,0.91-2.3,1.68-3.36,2.36c-1.4,0.89-2.97,0.09-3.12-1.53c-0.01-0.16-0.06-0.32-0.05-0.47
		c0.41-4.74,5.58-8.25,9.67-6.3c1.14,0.54,2.28,1.1,3.65,1.77c0.75-0.84,1.45-1.65,2.17-2.43c0.84-0.9,1.87-1.2,3.04-0.81
		c1.21,0.4,1.69,1.44,1.91,2.56c0.82,4.26-2.59,8.07-6.93,7.56c-1.54-0.18-3.02-0.93-4.5-1.48C48.72,78.63,48.03,78.21,46.98,77.69z
		"/>
	<path class="st0" d="M32.56,70.9c-2.65-0.16-4.71-0.22-6.77-0.43c-0.92-0.09-1.86-0.39-2.72-0.76c-1.08-0.47-1.33-2.04-0.43-2.81
		c0.71-0.6,1.51-1.22,2.38-1.47c4.33-1.26,8.77-1.37,13.23-1.04c0.31,0.02,0.63,0.1,0.93,0.2c1.51,0.46,2.65,1.76,2.66,3.02
		c0.01,1.28-1.06,2.58-2.75,2.82C36.74,70.74,34.35,70.78,32.56,70.9z"/>
	<path class="st0" d="M55.6,30.17c-4.3-0.52-7.77-0.85-11.19-1.4c-0.8-0.13-1.74-0.85-2.15-1.57c-0.6-1.04-0.12-2.15,0.78-2.97
		c1.49-1.35,3.32-1.94,5.25-1.81c2.84,0.19,5.66,0.6,8.48,0.98c0.61,0.08,1.22,0.36,1.77,0.65c1.23,0.65,1.84,1.71,1.74,3.11
		c-0.09,1.28-0.96,2.43-2.26,2.73C56.96,30.13,55.85,30.15,55.6,30.17z"/>
</g>
</svg>
